<svg xmlns="http://www.w3.org/2000/svg" xmlns:xlink="http://www.w3.org/1999/xlink" xmlns:sketch="http://www.bohemiancoding.com/sketch/ns" width="1197px" height="227px" viewBox="0 0 1197 227" version="1.1"><style>.style0{fill:	none;fill-rule:	evenodd;}.style1{fill:	#FFFFFF;}</style><!-- Generator: Sketch 3.3.3 (12072) - http://www.bohemiancoding.com/sketch --><title>Valle Optik</title><desc>Created with Sketch.</desc><defs/><g sketch:type="MSPage" class="style0"><g sketch:type="MSLayerGroup" class="style1"><path d="M479.3 141 C478.9 141.5 477.2 142.1 476.8 141.2 C476.5 140.3 478.1 138.9 478.6 138.3 C480.7 135.7 482.7 133.1 484.8 130.5 C488.4 126 492.1 121.7 495.6 117.2 C498 114.2 500.4 111.2 502.8 108.2 C506.7 103.3 510.6 98.5 514.5 93.6 C515.8 91.9 517.1 90.3 518.4 88.7 C519.4 87.4 521.2 85.8 521.4 84.2 C512.2 66.5 493.9 54.7 474.6 51.1 C469.1 50.1 463.4 50.1 457.8 50.6 C455.6 50.8 452.3 50.9 450.5 52.1 C450.2 52.2 449.9 52 449.7 51.9 C449.1 52 448.5 52.2 448 52.3 C446.7 52.6 445.4 53 444.1 53.4 C434.7 56.4 426 61.9 418.9 68.8 C411.8 75.7 406 84.1 402.9 93.6 C399.8 102.9 399 113.2 400.3 122.9 C403 143 415.5 160.8 433.4 170.3 C442.3 175.1 453 177.8 463.2 177.9 C466.5 177.9 469.7 177.9 473 177.9 C483.9 177.9 494.8 178 505.7 178 C508.6 178 511.4 177.7 514.2 177.8 C515.1 177.8 517.7 177.6 518.2 178.5 C518.9 180 517.3 180.4 516.2 180.6 C513.3 181 510 180.5 507 180.6 C494.3 180.9 481.5 180.7 468.7 180.6 C463 180.5 457.4 180.5 451.7 179.4 C446.5 178.5 441.4 176.8 436.6 174.6 C427.2 170.3 418.7 164 412.1 156 C399.7 140.9 394.8 119.8 398.8 100.8 C402.9 80.7 416.8 63.1 435.3 54.5 C454.5 45.5 476.5 45.9 495.3 55.6 C504.8 60.6 513.6 67.6 519.8 76.5 C521.5 78.8 523.1 81.2 524.3 83.8 C524.8 84.7 524.6 85.1 524 85.9 C522.9 87.3 521.8 88.6 520.7 90 C516.7 95 512.7 99.9 508.7 104.9 C499.1 117 489.4 129.2 479.3 141 M440.9 126.6 C439.4 128.1 438.1 123.6 437.8 122.7 C437.1 120.4 436.8 118.1 436.8 115.8 C436.6 111.3 437.1 107.1 439 103.1 C442.6 95.4 449.6 89.4 458 87.7 C460.2 87.2 462.4 87 464.7 87.1 C465.8 87.1 471.2 87.2 470.6 88.9 C469.8 91 467.7 92.9 466.3 94.6 C464.6 96.9 462.9 99.1 461.1 101.3 C454.4 109.7 447.6 118 440.9 126.6 M516.9 170.8 C517.9 171 518.2 171.4 518.3 172.4 C518.4 173.2 518.7 174.4 517.9 175 C517 175.6 514.7 175.2 513.6 175.2 C511.8 175.3 510 175.3 508.3 175.3 C502.1 175.4 495.9 175.5 489.7 175.4 C478.2 175.2 466.4 175.9 454.9 174.4 C434.8 171.8 415.2 157.6 407.5 138.5 C399.5 118.7 401.8 95.5 414.6 78.2 C426.5 62.1 445.3 53.2 465.1 53.4 C481.2 53.6 497.8 60.2 508.8 72.1 C510.6 74 512.3 75.9 514 77.7 C515.5 79.3 516.5 81.6 517.7 83.4 C518.3 84.4 518 85 517.2 85.9 C515.1 88.5 513 91.2 510.9 93.8 C506.8 98.9 502.7 103.9 498.6 109 C490.3 119.1 482 129.1 473.8 139.3 C473 140.3 472.4 141.4 471 141.6 C470 141.8 469 141.6 468 141.4 C467.5 140.6 468.7 139.3 469.2 138.7 C470.3 137.3 471.4 135.8 472.5 134.4 C476.4 129.4 480.4 124.5 484.5 119.5 C492.5 109.6 500.6 99.8 508.4 89.7 C509.8 87.8 512.9 85.3 511.9 82.8 C511 80.7 508.8 78.8 507.3 77.1 C503.9 73.3 500 70 495.8 67.2 C479.5 56.3 457.7 54.8 439.9 63 C421.8 71.3 409.3 88.9 407.2 108.7 C404.9 130 415.4 150.5 433.4 161.9 C443 167.9 453.5 170.1 464.7 170.7 C476.8 171.4 488.9 171 500.9 170.9 C506.2 170.8 511.6 170.8 516.9 170.8 M518.4 97 C519.8 95.2 521.2 93.4 522.6 91.6 C525 88.3 529 86 526.4 81.6 C520.6 71.4 512.5 63.1 502.7 56.7 C494.1 51.1 484.7 47.2 474.5 45.9 C464.6 44.5 454.4 45.2 444.8 47.8 C424.6 53.4 408.1 68.4 399.7 87.5 C391.4 106.4 392.9 130.3 403.1 148.1 C413 165.5 432.1 179.1 452 182 C463.6 183.7 475.4 182.6 487.2 183 C491.4 183.2 495.6 183.1 499.8 183 C505.5 183 511.2 183 517 183 C518.1 183 520.5 183.3 520.9 182.1 C521.6 180.1 521.2 177.4 521.2 175.3 C521.3 172 521.3 168.6 521.3 165.2 C521.2 158.8 521.1 152.3 520.9 145.8 C520.8 145.2 521.1 144.7 521 144.1 C520.9 143.6 520.7 143.2 520.6 142.7 C520.4 141.9 519.9 142.2 519.1 142.2 C518.4 142.1 517.7 142.1 516.9 142.1 C513.7 142 510.6 142 507.4 142 C501.2 142.1 495.1 142.2 489 142 C487.8 142 486.6 142 485.4 141.9 C484.9 141.8 484.4 141.7 484 141.4 C483.3 140.9 484.1 140.4 484.5 139.9 C486.4 137.2 488.4 134.6 490.4 132 C499.7 120.3 509.1 108.7 518.4 97 " sketch:type="MSShapeGroup"/><path d="M267.3 180.8 C266.5 181.2 265.8 180.8 265.5 180 C265.4 178.5 265.3 177 265.3 175.5 C265.3 174 265.7 172.5 265.6 171.1 C265.3 167.9 265.3 164.6 265.3 161.4 C265.4 149.2 265.3 137 265.2 124.9 C265.2 113.7 264.5 102.1 260.1 91.7 C252.5 73.7 235.5 58.4 216.3 54 C196.6 49.5 176 53.6 159.8 65.9 C152 71.9 145.1 79.5 140.6 88.4 C136.2 97.2 134.1 107.1 134 117 C133.8 137.6 143.7 157.6 160.2 169.7 C176.9 182 199.8 186.1 219.6 179.3 C222.2 178.4 224.8 177.2 227.4 176.5 C228.6 176.2 228.9 177.3 228.4 178.3 C227.1 179.1 225.7 179.8 224.2 180.3 C219.2 182.3 213.9 183.7 208.6 184.4 C198.3 185.8 187.7 184.8 177.8 181.5 C158.4 175.1 142.2 159.7 135.4 140.2 C128.7 121 130.9 99.1 141.8 81.9 C147.6 72.8 155.5 64.9 164.9 59.6 C169.7 56.7 174.8 54.2 180.1 52.5 C182.8 51.6 185.5 51 188.3 50.5 C190.9 50 193.8 49.5 196.4 49.5 C215.5 48.9 234.5 55.8 248.1 69.4 C255.2 76.4 260.9 85.1 263.9 94.8 C267.6 106.1 267.7 117.8 267.7 129.5 C267.7 142.5 268.1 155.4 267.9 168.3 C267.8 171.2 268.1 174.1 268 176.9 C267.9 177.8 268.2 180.4 267.3 180.8 L267.3 180.8 ZM228.3 120.7 C227.1 130.8 220.7 139.2 211.6 143.6 C203 147.8 192.4 147.1 184.3 142 C175.7 136.5 170.6 127 170.8 116.8 C171.1 105.9 177.5 95.8 187.5 91.3 C192.1 89.2 197.2 88.4 202.3 88.7 C207.5 89.1 213.6 91.1 217.6 94.8 C225.5 100.9 229.5 110.8 228.3 120.7 L228.3 120.7 ZM259.8 181 C258.9 180.9 258.7 181.1 258.6 180.1 C258.5 179.4 258.4 178.6 258.3 177.9 C258.2 176.2 258.2 174.5 258.2 172.7 C258.2 166.3 258.4 159.9 258.3 153.5 C258.3 147.2 258.1 140.8 257.9 134.4 C257.8 128 258.2 121.6 257.8 115.3 C257.2 104.6 254.5 94.5 248.6 85.5 C243.1 77 235.4 69.8 226.3 65.3 C217.5 60.9 207.4 59 197.6 59.4 C177.4 60.2 159.2 71.3 148.8 88.8 C138.7 105.8 138.4 128.1 148.2 145.3 C158.3 162.9 176.6 174.6 196.9 175.3 C206.9 175.6 217.3 173.7 226.3 169.1 C227.1 168.7 228.3 167.7 228.6 169.1 C228.8 170.1 228.9 172.1 227.9 172.6 C225.8 173.8 223.7 174.9 221.4 175.7 C217 177.5 212.4 178.6 207.7 179.2 C187.9 181.7 168 175 154.2 160.6 C139.2 144.9 133.3 121.3 139.3 100.4 C144.9 81.3 159.7 65.8 178.3 58.9 C196.4 52.2 216.9 54.6 233.3 64.6 C234.4 65.2 236.4 66.5 237 66.9 C236.8 66.8 236.6 66.6 236.4 66.5 C240.4 68.9 244 72.7 247.1 76.1 C250.3 79.9 253.1 84 255.3 88.4 C258.9 95.6 261.2 103.7 261.6 111.8 C262.1 119.3 262.2 126.6 262.3 134.1 C262.3 146.4 262.3 158.6 262.3 170.9 C262.4 174 262.4 177.1 262.4 180.2 C262.4 181.2 260.4 181 259.8 181 L259.8 181 ZM270.4 129.4 C270.4 121.9 270.5 114.5 269.4 107 C267.9 96.4 264.3 86.2 258.1 77.4 C253.9 72 249.8 66.9 244.5 62.7 C239.7 58.8 234.4 55.5 228.8 53 C208.5 43.8 184 45.4 164.7 56.3 C146.7 66.3 133.5 84.3 129.8 104.5 C125.9 125.4 132 148.1 146.2 163.8 C160.4 179.6 180.9 188.4 202.1 187.5 C207.6 187.2 213 186.4 218.3 185 C221 184.3 223.6 183.5 226.1 182.5 C226.9 182.2 228.1 181.3 228.7 182.4 C229.4 183.6 229.2 183.7 230.8 183.7 C243.6 183.9 256.5 183.8 269.3 183.5 C270.8 183.5 270.4 181.2 270.4 180.2 L270.4 129.4 L270.4 129.4 ZM103.5 129.7 C100.1 137.5 96.7 145.3 93.3 153.1 C91 158.4 88.7 163.6 86.4 168.8 C85.9 169.9 85.4 171 85 172.1 C84 174.7 82.9 177.3 81.6 179.8 C79.6 183.3 78.1 178.2 77.3 176.3 C72.5 165.1 67.9 153.8 63 142.6 C58 130.9 52.6 119.3 47.7 107.6 C42.8 96 37.4 84.6 32.5 72.9 C30.5 68.2 28.7 63.4 26.6 58.6 C21.9 47.8 17.2 37 12.6 26.1 C11.2 23 9.8 20 8.5 17 C7.3 14.4 6.4 11.7 4.9 9.2 C5.1 8.7 5 7.6 5.8 7.5 C6.2 7.5 7.2 7.7 7.6 8 C10.2 13.8 12.9 19.7 15.5 25.6 C25.8 49.3 35.7 73.1 45.9 96.8 C56.1 120.4 66.6 143.9 76.8 167.4 C77.5 168.8 78.1 170.2 78.7 171.6 C78.9 172.1 79.7 174.9 80.4 174.2 C81.9 171.3 83.3 168.3 84.7 165.4 C87.3 159.7 89.8 153.9 92.3 148.2 C97.5 136.3 102.7 124.5 108 112.6 C118.6 88.8 129.1 64.9 139.7 41.1 C143.4 32.7 147 24.3 150.7 15.8 C151.4 14 152.2 12.2 153 10.4 C153.5 9.2 154.7 5.6 156.7 7.5 C156.4 9.7 155.2 11.6 154.3 13.6 C152.9 16.6 151.6 19.6 150.4 22.6 C147.9 28.4 145.7 34.3 143.1 40.1 C137.8 51.9 132.6 63.8 127.4 75.6 C119.5 93.7 111.4 111.6 103.5 129.7 L103.5 129.7 ZM13 7.4 C13.6 7.4 15.8 7.1 16.2 7.6 C17.7 9.6 18.5 12.1 19.6 14.3 C30.1 37.9 39.7 61.9 50.2 85.4 C55.5 97.2 60.7 109 65.7 120.8 C66.3 122.2 66.9 123.7 67.5 125.1 C67.8 125.8 68.1 126.5 68.4 127.2 C68.6 127.6 68.6 128.3 68.7 128.6 C69.3 129.3 69.6 129.8 70.1 130.7 C70.8 132.3 71.5 133.9 72.1 135.5 C74.5 141.3 76.7 147.1 79.5 152.6 C80.3 154.1 81.1 152.7 81.5 151.8 C82.2 150.4 82.8 149.1 83.5 147.8 C84 146.7 84.5 145.6 85 144.5 C87 140.1 89 135.6 90.9 131.1 C96.1 119.5 101.1 107.7 106.2 96 C113.4 79.7 120.6 63.4 127.7 47.1 C131.2 39 134.8 30.9 138.4 22.8 C140.2 18.8 141.9 14.7 143.7 10.7 C144.6 8.7 145 7.2 147.4 7 C148.2 6.9 150.8 6.8 150.8 8 C149.5 12.7 147.1 17.3 145.1 21.8 C142.9 27 140.6 32.2 138.3 37.4 C134.4 46.4 130.5 55.5 126.4 64.4 C115.6 87.9 105.7 111.8 95.2 135.5 C92.6 141.4 89.9 147.3 87.3 153.3 C86.1 156.1 84.8 158.9 83.6 161.7 C82.9 163.2 82.3 164.6 81.7 166 C81.4 166.5 81.2 167.5 80.6 167.7 C79.7 168 79.3 166.3 79 165.8 C76.2 160.5 74.3 154.8 71.9 149.3 C69.4 143.6 66.9 137.9 64.5 132.1 C54.3 108.7 43.8 85.4 33.9 61.9 C28.8 50.1 23.9 38.1 18.6 26.4 C16.2 21 13.5 15.5 11.8 9.8 C11.6 9.2 11.4 8.5 11.2 7.8 C11.8 7.6 12.4 7.5 13 7.4 L13 7.4 ZM145.9 39.6 C148.5 33.6 151 27.7 153.6 21.8 C155 18.7 156.4 15.7 157.7 12.6 C158.7 10.5 161 7.3 160.5 4.9 C155.8 4.3 151.1 4.5 146.4 4.5 C141 4.6 135.7 4.6 130.4 4.6 C127.7 4.6 124.9 4.6 122.1 4.6 C120.4 4.6 117.2 3.9 115.8 4.9 C114.6 5.7 114.5 7.3 113.8 8.4 C112.8 10.8 111.7 13.1 110.7 15.5 C102.1 35 94.1 54.8 85.3 74.2 C83.9 77.2 82.4 80.3 81 83.3 C79.6 84.7 77.7 78.4 77.2 77.4 C74.6 71.4 72 65.4 69.4 59.4 C64.2 47.5 59 35.5 53.7 23.5 C52.4 20.4 51 17.3 49.7 14.1 C48.6 11.5 47.6 8.7 46.2 6.3 C45.2 4.6 43.9 4.7 42.1 4.5 C40.7 4.4 39.2 4.4 37.7 4.5 C34.6 4.6 31.6 4.6 28.5 4.6 C22.3 4.7 16 5 9.8 4.9 C6.8 4.8 3.7 4.6 0.8 5.1 C0.8 6.1 1.7 7.5 2.1 8.4 C3.1 10.8 4.2 13.2 5.2 15.6 C7.5 20.9 9.8 26 12.1 31.2 C15.9 39.8 19.5 48.5 23.2 57.1 C31.9 77.8 40.7 98.5 49.9 119 C55.3 130.9 60.5 142.8 65.7 154.8 C68.3 160.8 70.9 166.8 73.5 172.8 C74.8 175.9 76.1 179 77.5 182.2 C78.3 184.1 78.9 186 80.3 187.6 C83.9 181 86.8 174 89.8 167.1 C92.9 160 96 152.9 99.1 145.8 C109.4 122.1 120.3 98.7 130.7 75 C135.9 63.2 140.9 51.4 145.9 39.6 L145.9 39.6 ZM297.5 180 C296.4 181.1 293.4 180.9 293.4 179.1 L293.3 175.6 C293.3 164.4 293.2 153.2 293.1 142.1 C292.9 124.5 292.8 107 292.8 89.5 C292.8 80.6 292.8 71.8 292.7 63 C292.7 54 292.3 44.9 292.5 35.8 C292.6 29.2 292.4 22.6 292.5 15.9 C292.6 14.4 292.6 12.9 292.6 11.3 C292.7 10 292.2 7.4 293.6 6.9 C294.5 6.5 295.7 6.6 296.6 7 C296.9 7.3 296.9 8.3 297 8.7 C297.1 24.3 297.1 40 297.1 55.6 C297.2 79.2 297.2 102.8 297.3 126.5 C297.3 141 297.4 155.6 297.4 170.2 C297.4 172.5 297.4 174.9 297.5 177.2 C297.5 177.8 297.8 179.4 297.5 180 L297.5 180 ZM289.2 180.4 C288.3 180.5 288.3 180.2 287.9 179.5 C287.4 178.6 287.7 177.1 287.7 176.1 C287.7 174.3 287.7 172.5 287.7 170.7 C287.7 164.3 287.7 157.8 287.6 151.4 C287.6 142.7 287.6 133.9 287.5 125.2 C287.4 101.3 287.2 77.4 287 53.5 C286.9 38.4 287 23.3 287.2 8.2 C287.2 6.9 289.4 6.2 289.6 7.7 C289.6 23.8 289.7 40 289.7 56.1 C289.7 73 289.6 89.8 289.7 106.6 C289.9 128.8 290 151 290.1 173.1 C290.1 175.4 290.1 177.6 290.1 179.8 C290.1 180.2 289.5 180.4 289.2 180.4 L289.2 180.4 ZM327.3 172.7 C327.2 154 327.1 135.4 327 116.7 C326.9 79.3 326.5 42 326.6 4.6 C326.5 4.4 326.3 3.9 326.1 3.7 C325.1 3.7 324.1 3.7 323.1 3.6 C321.3 3.6 319.5 3.5 317.8 3.5 C314 3.5 310.2 3.5 306.4 3.6 C302.6 3.7 298.8 3.9 295.1 4 C293.3 4.1 291.6 4.2 289.9 4.2 C288.4 4.3 286.5 4.1 285 4.4 C283.9 4.7 284.2 7.1 284.2 8 L284.2 14.9 C284.2 32.5 284.1 50.2 284.2 67.8 C284.4 92.4 284.6 117 284.6 141.6 C284.6 148.1 284.6 154.5 284.6 161 C284.6 164.3 284.7 167.7 284.7 171 C284.7 172.1 284.8 173.1 284.6 174.2 C284.4 175.1 284.9 176.1 284.9 177 C284.9 177.7 284.5 182.9 285.6 182.9 C286.4 183 287.1 183 287.9 183 C290.9 183 293.9 183.1 296.9 183.2 C305.6 183.3 314.3 183.4 323 183.2 C324.4 183.2 326.6 183.7 327.1 182.1 C327.4 181.1 327.3 180 327.3 178.9 C327.3 178.4 327.3 177.9 327.3 177.4 C327.3 175.8 327.3 174.3 327.3 172.7 L327.3 172.7 ZM356.7 179.2 C356 179.8 354.9 179.6 354 179.5 C352.9 179.3 352.6 179 352.6 177.8 C352.6 171.7 352.6 165.6 352.5 159.5 C352.5 156.6 352.4 153.7 352.4 150.8 C352.3 149.9 351.9 148 352.2 147.3 C352.3 147 352.4 146.7 352.4 146.4 C352.4 143.6 352.4 140.9 352.4 138.1 C352.3 126 352.2 113.8 352.1 101.6 C352 86.8 352 71.9 352 57 C351.9 45.3 351.9 33.5 351.9 21.7 C351.9 17.8 351.9 13.9 351.9 10 C351.9 9.2 351.9 8.3 351.9 7.4 C351.9 5.5 355.9 5.2 356.4 7 C356.4 22.8 356.4 38.6 356.5 54.4 C356.5 72.6 356.6 90.8 356.7 109 C356.7 120 356.7 131 356.8 141.9 C356.8 145.2 356.8 148.5 356.8 151.7 C356.8 157.9 357.1 164.1 357.1 170.3 C357.1 171.9 357.1 173.4 357.1 175 C357 176 357.4 178.5 356.7 179.2 L356.7 179.2 ZM349.8 176.8 C349.7 178.2 349.9 179.9 348.1 179.6 C346.4 179.4 347 176.2 347 175.1 C347 170.6 346.9 166.1 346.9 161.6 C346.8 142.2 346.7 122.9 346.7 103.5 C346.6 88 346.5 72.5 346.5 57 L346.5 7.1 C346.5 5.9 348.4 5.7 348.9 6.7 C349.2 33.4 349.1 60 349.2 86.7 C349.3 103.2 349.3 119.6 349.4 136.1 C349.5 145.9 349.5 155.8 349.6 165.7 C349.6 167.9 349.7 170.1 349.8 172.4 C349.8 173.9 349.8 175.3 349.8 176.8 L349.8 176.8 ZM386.3 174.3 C386.7 149.2 386.1 124.1 386 99 C385.9 89 385.9 79 385.8 68.9 C385.8 64.9 385.6 60.9 385.7 56.8 C385.8 53.6 385.9 50.4 385.9 47.2 C385.8 44.3 385.5 41.4 385.6 38.5 C385.8 32.2 385.7 25.9 385.7 19.7 C385.7 16.3 385.7 13 385.8 9.7 C385.8 8.9 385.8 8.2 385.8 7.4 C385.5 7.1 385.4 6.7 385.5 6.2 C385.6 5.3 386.2 4.4 385.5 3.6 C385.5 2.2 383.9 2.7 383 2.7 C381.4 2.6 379.9 2.6 378.4 2.6 C375.3 2.6 372.2 2.6 369.1 2.7 C362.7 2.8 356.2 3.1 349.8 3.3 C348.8 3.3 343.8 2.8 343.8 4.2 C343.8 4.6 343.8 5 343.8 5.4 C343.8 7.4 343.8 9.3 343.8 11.3 C343.7 22 343.6 32.7 343.5 43.4 C343.4 62.2 343.7 81 343.8 99.8 C343.8 116 344 132.3 344.1 148.5 C344.1 156.2 344.1 164 344.3 171.7 C344.4 174.6 344.4 177.4 344.5 180.3 C344.6 182.1 345.7 182.2 347.4 182.2 C350.5 182.2 353.5 182.2 356.5 182.2 C362.9 182.1 369.3 182 375.7 182.1 C378.7 182.1 381.7 182.1 384.7 182 C386.5 182 386.1 180.4 386.2 179 C386.2 177.5 386.3 175.9 386.3 174.3 L386.3 174.3 Z" sketch:type="MSShapeGroup"/><path d="M1025 170.6 C1024.9 173.2 1024.8 175.7 1024.8 178.3 C1024.8 179.4 1021.7 178.9 1021.3 178.4 C1020.6 177.5 1020.9 175.9 1020.9 174.9 C1020.9 173.1 1020.9 171.2 1020.9 169.4 C1020.6 151 1020.8 132.6 1020.7 114.2 C1020.6 99.5 1020.6 84.8 1020.5 70.2 C1020.5 65.5 1020.5 60.8 1020.4 56.1 L1020.4 52.9 C1020.4 50.9 1024.7 50.7 1024.5 52.5 C1024.6 67.6 1024.7 82.7 1024.7 97.8 C1024.8 119.7 1024.9 141.6 1025.1 163.5 C1025.1 165.8 1025 168.2 1025 170.6 L1025 170.6 ZM1017.6 178.4 C1017.2 179 1015.5 179.3 1015.5 178.3 C1015.5 177.8 1015.5 177.3 1015.5 176.8 C1015.5 171.6 1015.4 166.3 1015.4 161.1 C1015.4 148.4 1015.2 135.6 1015.2 122.9 C1015.2 109.4 1015.1 95.9 1014.9 82.5 C1014.8 75.7 1014.8 68.9 1014.8 62.1 C1014.9 58.8 1014.9 55.5 1015.1 52.2 C1015.3 51.7 1017 51.2 1017 51.9 C1017.1 52.5 1017.1 53.1 1017.2 53.8 C1017.7 64.9 1017.5 76 1017.5 87.1 C1017.5 99.6 1017.5 112.1 1017.6 124.6 C1017.6 141.6 1017.6 158.5 1017.6 175.5 C1017.6 176.1 1017.9 177.8 1017.6 178.4 L1017.6 178.4 ZM1054.6 172.3 C1054.6 166.5 1054.6 160.7 1054.6 154.9 C1054.5 142.6 1054.7 130.4 1054.6 118.2 C1054.5 105.9 1054.6 93.6 1054.4 81.2 C1054.4 78 1054.3 74.8 1054.2 71.6 C1054.2 70.1 1054.2 68.6 1054.1 67.1 C1054.1 65.9 1054.7 64.8 1054.3 63.6 C1053.9 62.4 1054.4 60.8 1054.4 59.5 C1054.4 58.2 1054.3 56.9 1054.2 55.6 C1053.9 53.2 1054.9 50.5 1053.7 48.3 C1043.7 48.1 1033.8 48.5 1023.9 48.5 C1021.9 48.5 1020 48.5 1018.1 48.5 C1016.6 48.5 1014.2 48.1 1012.9 48.8 C1011.1 49.7 1012 54.8 1012 56.4 L1012.2 70.6 C1012.4 86.2 1012.4 101.7 1012.4 117.3 C1012.5 138 1012.5 158.8 1012.5 179.5 C1012.5 180.3 1012.6 180.5 1013 181.3 C1013.4 181.9 1018.3 181.5 1019 181.5 C1026.7 181.7 1034.4 181.5 1042.1 181.4 C1045.3 181.4 1048.4 181.3 1051.5 181.1 C1052.9 181 1054.3 181.3 1054.5 179.6 C1054.7 178.4 1054.5 177.1 1054.6 175.9 C1054.7 174.7 1054.6 173.5 1054.6 172.3 L1054.6 172.3 ZM913.2 148.8 C902.1 167.2 883.2 179.5 861.9 181.9 C850.7 183.2 838.2 182.3 827.8 177.6 C826.8 177.2 824.9 176.6 824.4 175.7 C823.5 174.1 825.3 174.2 826.3 174.4 C829.2 175.1 832 176.7 834.9 177.5 C840.7 179 846.8 179.7 852.8 179.8 C874.6 180.2 896.6 169.2 908.7 150.8 C920.4 133 923.2 109.6 914.5 89.9 C906.1 70.8 888.9 56.7 868.7 51.9 C858.9 49.6 848.7 49.5 838.9 51.5 C833.6 52.6 828.6 54.7 823.5 56.6 C821.5 57.3 819.5 58.9 817.7 60 C815.2 61.5 812.7 63.1 810.4 64.9 C806.3 68.3 802.6 72.4 799.5 76.7 C793.5 84.8 789.5 94.2 787.9 104.2 C786.4 113.3 786.9 122.8 786.9 132 C787 142.6 787.1 153.2 787.2 163.7 C787.3 182.3 787.4 200.8 787.6 219.3 C787.6 220.3 787.6 221.3 787.6 222.3 C787.6 223.3 786.7 223.6 785.8 223.2 C784.6 222.8 785.1 221 785 220 C785 218.2 785 216.4 785 214.6 C784.9 201.8 784.8 189 784.8 176.2 C784.7 163.9 784.5 151.5 784.4 139.1 C784.3 127.3 783.8 115.2 785.5 103.5 C788.6 82.9 802.2 64.5 820.5 55.2 C839.4 45.6 862.4 44.8 881.8 53.4 C896.7 60 910.5 72.4 916.5 87.8 C925.4 107.3 924.2 130.5 913.2 148.8 L913.2 148.8 ZM825.8 166.6 C831.1 169 836.7 170.8 842.4 171.8 C864.3 175.7 887.1 167.6 900.7 149.7 C912.7 133.9 915.8 112.1 908.2 93.6 C900.3 74.5 882.7 61.1 862.4 58 C847.6 55.8 832.6 58.7 820 66.8 C813.6 71 808.1 76.6 803.9 83 C801.8 86.2 800 89.6 798.5 93.1 C797.9 94.7 797.3 96.4 796.8 98.1 C796.5 99.1 795.3 101.6 796.1 102.5 C794.7 102.3 794 117.3 794 118.8 C794 124.9 794.4 131 794.4 137.1 C794.5 141.4 794.4 145.8 794.4 150.1 C794.5 161.6 794.6 173 794.6 184.5 C794.7 191.6 794.8 198.7 794.9 205.9 C794.9 208.9 795 212 794.9 215.1 C794.9 216.7 794.9 218.3 794.9 219.8 C794.9 220.6 794.8 221.4 794.8 222.2 C794.8 223.3 794.2 223.4 793.2 223.4 C790.5 223.5 790.4 222.4 790.4 220 C790.4 216.7 790.4 213.3 790.4 209.9 C790.3 184 789.8 158 789.7 132.1 C789.7 120.8 789.2 109.2 792.1 98.1 C794.7 87.8 800.7 78.2 808.2 70.6 C810 68.8 811.9 67.1 814 65.5 C815 64.7 816.1 63.9 817.1 63.3 C817.7 62.9 818.2 62.6 818.7 62.2 C819.3 62.3 819.9 62.1 820.3 61.8 C823.8 58.8 829 57.1 833.4 55.8 C843.9 52.6 855.3 51.8 866.1 54 C884.6 57.8 901.9 70.1 910.3 87.3 C919.6 104.5 918.8 126.9 909.8 144.1 C900.7 161.5 882 173.9 862.6 176.6 C852.4 178.1 842.1 176.8 832.3 173.8 C829.7 173 827.2 171.9 824.9 170.3 C823.6 169.4 823.4 165.4 825.8 166.6 L825.8 166.6 ZM827.8 100.2 C833.6 90.9 843.8 85.8 854.7 86.2 C866.4 86.7 875.8 93.6 880.5 104.2 C884.2 113.1 882.8 123.9 877.3 131.8 C874.2 136.1 870 139.5 865.1 141.5 C864 142 862.7 142.4 861.5 142.8 C861 142.9 860.6 142.6 860.2 142.8 C859.9 143 859.7 143.3 859.3 143.5 C856.8 144 854.3 144.2 851.7 144.1 C842.1 143.7 832.7 138.7 827.7 130.2 C822.3 121 822.1 109.3 827.8 100.2 L827.8 100.2 ZM924 102.8 C923.4 99.8 922.5 96.9 921.7 94 C921 91.4 920.1 88.9 918.9 86.5 C917.7 83.8 916.3 81.3 914.8 78.8 C914.5 78.3 913.4 76 912.8 76 C912 76 911.5 75.2 911.9 74.4 C908.7 69.7 904.4 65.9 900.3 62.1 C873.8 39.5 832.3 39.1 805.8 62.1 C798.5 68.4 792.5 76.3 788.4 85 C784.8 92.7 781.8 102 781.8 110.7 C781.9 120.9 781.9 131.1 781.9 141.3 C782 158.9 782.2 176.5 782.3 194.1 C782.4 201.9 782.5 209.7 782.5 217.6 C782.5 219.8 782.5 222.1 782.5 224.3 C782.5 226.5 785.9 225.8 787.5 225.8 C792.3 226.1 797.2 225.8 802 225.9 C808.3 226.1 814.7 226.3 821.1 226 C822.5 226 823.9 226.4 824 224.7 C824 223.1 824 221.6 824.1 220 C824.1 216.9 824.1 213.8 824.1 210.6 C824 204.2 823.9 197.7 824 191.2 C824.1 187.8 824.2 184.5 824.3 181.2 C824.4 179.4 825.1 179.7 826.4 180.2 C830 181.4 833.6 182.6 837.3 183.4 C857.2 187.6 879.1 183.7 895.7 171.7 C897.7 170.2 900 168.8 901.6 167 C902.4 166.2 903.1 165.3 904.1 164.7 C905 164.1 905.3 163.1 906.1 162.4 C910 159 913 154.3 915.6 149.8 C920.6 141 924.3 130.6 924.9 120.4 C925 117.4 925.3 114.3 924.8 111.3 C924.4 108.4 924.6 105.6 924 102.8 L924 102.8 ZM723.8 121.4 C717.7 130.3 708.8 136.5 698.6 140 C679.3 146.6 657.1 140.7 643.5 125.5 C629.4 109.6 627.6 84.7 639.2 66.9 C651.1 48.5 675 39.1 696.1 45.6 C696.2 45.4 696.2 45.3 696.3 45.1 C696.6 45.5 696.7 45.4 696.7 45.7 C717.3 51.9 732.2 70.2 733 91.8 C733.5 102.4 729.8 112.8 723.8 121.4 L723.8 121.4 ZM741.3 38.5 C727.6 24.4 708.9 16 689.4 14.2 C668.2 12.3 646.7 18.7 630.4 32.4 C615 45.2 604.5 63 602 83 C599.3 104.2 605.7 126.4 619.2 142.9 C632.8 159.4 653.2 170.3 674.6 171.6 C680.4 171.9 686.3 171.8 692.2 171.4 C697.4 171 702.7 169.6 707.6 168 C717.5 164.9 726.9 159.9 734.8 153.2 C750.9 139.5 761.1 120.5 762.9 99.4 C764 87.9 762.6 76.6 758.4 65.9 C754.5 55.8 748.8 46.4 741.3 38.5 L741.3 38.5 ZM993.2 172.1 C991.8 173 988.6 172.4 987 172.3 C984.5 172.1 982.1 171.8 979.7 171.2 C975.1 170.2 970.7 168.4 966.7 166.1 C958.5 161.4 951.9 154.2 947.8 145.6 C943.6 136.6 944.1 126.3 944 116.6 C943.9 105.9 943.8 95.3 943.7 84.6 C943.6 83 943.9 81 943.4 79.5 C943.3 79.2 943.8 79 943.9 78.7 C944.1 77.9 943.9 76.8 943.9 76 C943.9 73.9 943.9 71.9 943.9 69.8 C943.8 65.3 943.8 60.9 943.8 56.5 C943.7 52.3 943.7 48.1 943.6 43.9 C943.2 43.5 943.9 42.9 943.9 42.5 C943.8 41.4 943.8 40.4 943.8 39.4 C943.7 37.2 943.7 35 943.7 32.7 C943.7 28.8 943.6 24.8 943.7 20.8 C943.7 19.8 943.4 16.4 944.4 15.8 C945.4 15.2 947.2 15.1 948 16.2 C948 33 948.1 49.8 948.1 66.7 C948.1 86.2 948.2 105.6 948.4 125.1 C948.4 129.8 948.5 134.1 949.8 138.6 C952.6 148 958.9 156.2 967.2 161.3 C971.7 164.2 977.1 166.3 982.3 167.3 C985 167.8 987.6 167.9 990.4 167.8 C991.4 167.7 993.2 167.7 993.5 168.9 C993.8 169.9 994.1 171.4 993.2 172.1 L993.2 172.1 ZM992.1 177.7 C990.9 177.7 989.7 177.8 988.5 177.7 C986 177.7 983.5 177.5 981 177.1 C961 173.9 943.9 157.9 939.7 138 C938.2 130.6 938.5 123.1 938.5 115.5 C938.6 111.9 938.5 108.2 938.4 104.6 C938.4 98.4 938.3 92.2 938.3 86 C938.3 84.1 938.3 82.3 938.3 80.4 C938.3 79.9 938.1 79.9 938 79.3 C937.9 78.8 938.3 78.1 938.3 77.6 C938.3 76.9 938.3 76.1 938.2 75.4 C938.2 73.6 938.2 71.9 938.2 70.1 C938.2 57.6 938.2 45 938.4 32.4 C937.7 32 938.3 27.4 938.3 26.5 C938.3 23.6 938.4 20.7 938.4 17.8 C938.4 17.4 938.4 17 938.4 16.6 C938.4 15.5 940.5 15.1 940.8 16.3 C940.8 31.5 940.9 46.7 940.9 61.9 C941 83.8 941 105.7 941.1 127.6 C941.1 142 947.6 155.2 959 164.2 C966.7 170.2 976.9 174.5 986.8 174.9 C988 175 993.6 174.4 993.6 176.1 C993.7 177.4 993.3 177.6 992.1 177.7 L992.1 177.7 ZM978.1 55.6 C978.1 54.2 980.2 54.5 981.1 54.4 C984.9 54.2 988.7 54.2 992.5 54.5 C993.6 55 993.4 56.5 993.4 57.5 C993.3 58.9 990.7 59 989.6 59 C988.1 59 986.6 58.7 985.1 58.8 C983.1 58.9 981.2 58.9 979.3 58.7 C977.8 58.5 977.8 56.8 978.1 55.6 L978.1 55.6 ZM978.3 49.7 C979.2 49.1 980.2 49 981.2 49 C985 48.9 988.7 49 992.5 49.1 C993 49.3 993.1 49.9 993.1 50.4 C993.1 51.3 992.8 51.3 992.1 51.5 C991.2 51.7 990 51.5 989.1 51.5 C987.9 51.5 986.6 51.6 985.4 51.6 C983.3 51.7 981.2 51.7 979.1 51.3 C978.1 51.2 978 50.6 978.3 49.7 L978.3 49.7 ZM996.3 142.4 C996.3 141.1 996.3 139.2 994.8 139.1 C993.4 139 992 139 990.6 138.8 C988 138.5 985.4 137.8 983.1 136.4 C978.6 133.5 978.8 127 978.5 122.2 C978.2 115.8 978.2 109.4 978.1 103 C978.1 99.6 978.1 96.2 978.1 92.9 C978.1 91.9 977.7 89.6 978.2 88.8 C978.9 87.8 979.6 88 980.8 87.9 C983.9 87.6 987 87.8 990.1 87.8 C991.5 87.8 992.9 87.8 994.3 87.6 C995.7 87.5 995.6 87 995.7 85.7 C996 82.6 995.9 79.6 995.9 76.5 C995.7 75.1 995.9 73.7 995.9 72.2 C995.9 70.8 995.6 69.4 995.7 67.9 C995.8 64.6 995.9 61.3 995.9 58 C995.9 55.4 995.8 53 995.8 50.5 C995.9 49.3 996.2 46.6 994.7 46.5 C993.3 46.3 991.8 46.2 990.3 46.3 C987.3 46.3 984.3 46.6 981.2 46.4 C980 46.3 979.2 46.3 978.2 45.5 C977.7 45.1 978 42.3 977.9 41.6 C977.8 38.6 977.8 35.5 977.8 32.4 C977.9 26 978 19.5 977.7 13.1 C977.3 12 975.2 12.4 974.2 12.4 C972.6 12.4 971.1 12.3 969.6 12.3 C966.5 12.3 963.4 12.3 960.3 12.3 C954.2 12.4 948.1 12.5 942 12.8 C941.3 12.8 935.9 12.7 935.9 13.5 C935.8 14.2 935.8 14.8 935.8 15.5 C935.8 18.5 935.7 21.5 935.7 24.5 L935.6 30.4 C935.6 30.9 935.7 31.5 935.8 32 C935.8 32.8 935.5 32.7 935.5 33.2 C935.4 33.7 936.2 34.3 935.7 34.8 C935.4 35.1 935.4 34.8 935.4 35.1 C935.5 45.2 935.5 55.2 935.6 65.2 C935.6 65.7 935.6 66.2 935.6 66.7 C935.6 67.2 935.6 67.3 935.8 67.7 C935.9 67.9 935.6 68.7 935.6 68.9 C935.5 69.6 935.6 70.3 935.6 71 C935.6 72.6 935.7 74.3 935.7 75.9 C935.7 77.3 935.4 78.7 935.5 80.1 C935.7 83 935.8 86 935.8 88.9 C935.9 97.9 935.9 106.8 935.9 115.8 C935.9 121.8 935.9 127.8 935.9 133.8 C935.9 135.4 936.7 137.3 937 138.9 C937.7 141.7 938.4 144.4 939.5 147 C941.3 151.6 943.9 156 947 159.8 C952.8 167 960.5 172.6 969.1 176 C973.5 177.7 978 178.9 982.6 179.5 C985.1 179.8 987.5 180 990 180.1 C991.6 180.1 994.4 180.6 995.7 179.5 C996.5 178.9 996.2 176.4 996.2 175.4 C996.2 173.8 996.3 172.2 996.3 170.7 C996.3 167.5 996.3 164.4 996.3 161.2 C996.3 155 996.3 148.7 996.3 142.4 L996.3 142.4 ZM769 100.2 C768.1 111.6 764.6 122.8 759.1 132.9 C753.7 142.7 746.9 151.7 738.1 158.5 C729.1 165.6 718.7 171.4 707.7 174.3 C701.8 175.8 695.7 177.3 689.6 177.6 C683.5 177.9 677.4 178.1 671.3 177.6 C665.6 177.1 659.8 175.2 654.3 173.5 C648.8 171.8 643.5 169.7 638.4 166.8 C628.8 161.5 620.3 153.9 613.4 145.3 C599.4 127.6 593 104.2 596.2 81.7 C599.2 60 610.3 40 627.6 26.5 C636.2 19.8 646.2 14.2 656.8 11.6 C659.6 10.9 662.4 10.3 665.2 9.3 C667.9 8.4 671.2 8.4 674.1 8.1 C680 7.6 686 7.4 691.8 8.2 C699 9.2 705.9 10.8 712.8 13.1 C717 15 721.3 16.9 725.6 18.9 C729.5 20.7 733.3 23.7 736.8 26.3 C741.2 29.7 745.4 33.5 748.9 37.9 C752.4 42.3 755.9 46.9 758.8 51.7 C761.6 56.5 763.5 61.7 765.3 66.9 C768.9 77.5 770 89 769 100.2 L769 100.2 ZM749.4 35.8 C749.2 35.8 749 35.9 749 35.5 C749.4 35.4 749.3 35.6 749.4 35.8 L749.4 35.8 ZM733 20.9 C730.1 19 727.2 16.7 724 15.3 C721.3 14.2 718.5 13 715.8 11.9 C713.3 10.8 711.1 10.1 708.4 9.4 C705.3 8.6 702.3 7.7 699.2 7 C697.9 6.7 695.5 5.8 694.2 6.1 C680.7 4.9 667.7 5.6 654.8 9.6 C635.6 15.7 618.7 28 607.6 44.8 C605 48.6 602.7 53.3 600.7 57.7 C599.4 60.3 598.3 63.1 597.5 66 C597.2 67.2 596.7 67.8 596.4 69 C596 70.3 595.7 71.7 595.3 73.1 C594 78.9 593.2 85 593 91 C592.9 94.2 593 97.4 593.2 100.6 C593.3 101.7 593 102.7 594.1 102.9 C594.3 103 594.5 103.3 594.5 103.5 C594.4 104.1 593.8 103.7 593.5 103.7 C595.2 115.7 599.2 127.4 605.4 137.8 C610.6 146.3 617.3 154.6 625.3 160.5 C630.4 164.2 635.4 168.2 641.1 171 C651.4 176 663.2 179 674.5 179.8 C680.6 180.3 686.8 180.4 692.8 179.8 C698.5 179.2 703.9 177.7 709.3 176.1 C712.3 175.2 715 174.4 717.7 173.1 C720.3 171.9 722.8 170.8 725.4 169.6 C726.8 168.9 728.1 167.9 729.4 167 C731.8 165.5 734.1 164 736.4 162.5 C744.6 157.1 751.1 149.3 756.7 141.3 C769.8 122.3 775.1 97.9 770 75.3 C765.1 53.4 751.9 33 733 20.9 L733 20.9 ZM1015.1 6.3 C1015.7 5.4 1017.4 5.8 1017.2 7 C1017.3 13.7 1017.3 20.4 1017.3 27.1 C1017.3 30.5 1017.2 34 1017.1 37.4 C1017.1 38.5 1017.6 41.3 1016.3 41.6 C1014.7 42.1 1014.9 39 1014.9 38.1 C1014.5 31.8 1014.9 25.5 1014.8 19.2 C1014.8 15.8 1014.7 12.5 1014.6 9.1 C1014.6 8.3 1014.6 6.9 1015.1 6.3 L1015.1 6.3 ZM1020.2 15.6 C1020.2 12.5 1020.2 9.4 1020.3 6.3 C1020.9 5.5 1022.1 5.5 1023.1 5.6 C1024.1 5.7 1024.1 5.8 1024.6 6.7 C1024.6 16.6 1024.6 26.4 1024.5 36.3 L1024.5 40.8 C1024.5 41.9 1022.3 41.9 1021.5 41.8 C1020.4 41.8 1020.4 40.8 1020.4 40 C1020.3 34.4 1020.2 28.8 1020.2 23.1 C1020.1 20.6 1020.2 18.1 1020.2 15.6 L1020.2 15.6 ZM1015 44.4 C1016.5 44.5 1018.1 44.5 1019.6 44.5 C1026 44.5 1032.4 44.5 1038.8 44.4 C1040.5 44.3 1054 44.8 1054.1 43.5 C1054.3 42 1054.2 40.5 1054.3 39 C1054.4 32.4 1054.4 25.8 1054.4 19.2 C1054.3 13.8 1054.6 8.2 1053.7 2.9 C1048.6 2.7 1043.4 2.6 1038.3 2.7 C1030.4 2.7 1022.4 2.9 1014.5 3.1 C1013.2 3.2 1012.4 3.1 1012.4 4.5 C1012.3 6.6 1012.3 8.7 1012.3 10.8 C1012.2 20.5 1012 30.2 1012 39.9 C1012 40.9 1011.7 43.2 1012.3 44 C1012.8 44.7 1014.2 44.4 1015 44.4 L1015 44.4 ZM1192 177.8 C1191.1 176.9 1191.4 175.4 1191.4 174.2 C1191 161.6 1191.8 148.8 1190.7 136.2 C1189.1 116.7 1175.4 98.3 1157.5 90.7 C1147 86.2 1135 84.3 1123.7 86.4 C1120.8 87 1118.1 87.9 1115.3 88.6 C1114.7 88.8 1112.6 89.5 1112.9 88.1 C1112.9 87.1 1114 86.7 1114.7 86.4 C1119.2 84.7 1124.3 83.9 1129.1 83.6 C1154.8 81.8 1180.6 97.2 1189.7 121.7 C1193.7 131.5 1193.4 142.7 1193.5 153.1 C1193.5 158.3 1193.5 163.5 1193.6 168.7 C1193.6 171.2 1193.6 173.8 1193.6 176.3 C1193.6 176.7 1193.6 177.1 1193.6 177.6 C1193.6 178.2 1192.2 178 1192 177.8 L1192 177.8 ZM1185.6 178.1 C1183.4 177.8 1184.2 174 1184.2 172.3 C1184.1 166 1184 159.6 1184 153.2 C1183.9 147.4 1184.1 141.5 1183.4 135.7 C1181 116.2 1166.1 100 1147.5 94.7 C1140.1 92.5 1131.6 92.1 1124 93.6 C1122.2 93.9 1120.3 94.4 1118.6 95 C1117.6 95.3 1113.9 97.2 1113.2 96.4 C1112.5 95.7 1112.8 93.7 1113.3 92.9 C1114.1 91.7 1116.8 91.3 1118.1 90.9 C1133 86.5 1148.5 89 1161.9 96.6 C1171.8 102 1179.3 111.3 1183.6 121.6 C1185.5 126 1187.4 131.2 1187.6 136 C1187.6 138.6 1187.7 141.1 1187.8 143.6 C1188.1 153.1 1188.1 162.6 1188.2 172.1 C1188.2 173.8 1188.2 175.5 1188.3 177.3 C1188.3 178.5 1186.3 178.2 1185.6 178.1 L1185.6 178.1 ZM1169.6 88.3 C1174.6 80.5 1177 71.4 1177.4 62.2 C1177.6 59.3 1177.4 56.3 1177.5 53.4 C1177.5 52.4 1177.5 51.4 1177.5 50.4 C1177.6 49.1 1180.7 49.9 1181.2 50.4 C1181.6 59.7 1181.4 69.2 1178.7 78.2 C1177.4 82.2 1175.5 85.8 1173.5 89.5 C1172.8 91 1171.6 92.8 1169.9 91.7 C1168.3 90.7 1168.7 89.6 1169.6 88.3 L1169.6 88.3 ZM1184.5 54.2 C1184.5 53 1184.6 51.8 1184.6 50.6 C1184.6 49.4 1186.8 49.3 1186.8 50.7 C1187.6 59.9 1187 69.2 1184.3 78.1 C1183.1 82.3 1181.4 86.4 1179.3 90.3 C1178.7 91.3 1176.9 95.6 1175.6 95.6 C1173 95.6 1176.1 91.4 1176.5 90.6 C1181.1 82.5 1184 73.4 1184.5 64 C1184.7 60.7 1184.4 57.5 1184.5 54.2 L1184.5 54.2 ZM1080.7 178.4 C1077.6 178.6 1078.7 174 1078.7 172 C1078.6 165.5 1078.5 159 1078.6 152.5 C1078.6 139.6 1078.4 126.7 1078.3 113.9 C1078.2 98.7 1078.2 83.6 1078.2 68.3 C1078.2 49.1 1077.9 29.8 1077.8 10.5 L1077.8 6.5 C1077.8 4.3 1082.3 4 1082.1 6.1 C1082.1 21.8 1082.1 37.4 1082.2 53.1 C1082.3 75.3 1082.5 97.5 1082.6 119.7 C1082.7 129.2 1082.8 138.8 1082.8 148.3 C1082.9 154.4 1082.9 160.4 1082.9 166.4 C1083 169.3 1082.7 172.4 1082.9 175.2 C1083.1 177.3 1082.9 178.2 1080.7 178.4 L1080.7 178.4 ZM1073.8 178.1 C1072.9 177.5 1073.4 175.2 1073.4 174.3 C1073.3 170.9 1073.3 167.5 1073.3 164.1 C1073.3 157.7 1073.3 151.3 1073.3 144.8 C1073.2 139 1073.2 133.2 1073.1 127.4 C1073.1 126.1 1073.1 124.8 1073 123.4 C1072.9 122.5 1072.6 121.2 1072.7 120.3 C1072.9 118.9 1073 117.6 1073 116.3 C1073 108.5 1072.9 100.8 1072.9 93 C1072.7 69.5 1072.4 46.1 1072.2 22.6 C1072.2 18.9 1072.2 15.2 1072.1 11.6 C1072.1 10 1072.2 8.5 1072.2 7 C1072.2 6.5 1072.1 5.6 1072.5 5.2 C1073.3 4.4 1075 5 1074.7 6.3 C1074.8 25.6 1074.9 44.9 1075.1 64.2 C1075.2 80.5 1075.2 96.8 1075.3 113.1 C1075.3 131.1 1075.4 149.1 1075.5 167 C1075.5 170.5 1075.5 174 1075.5 177.4 C1075.5 178.3 1074.3 178.5 1073.8 178.1 L1073.8 178.1 ZM1196.4 177.8 C1196.4 176.2 1196.4 174.7 1196.4 173.1 C1196.4 166.7 1196.4 160.4 1196.4 154 C1196.4 142.8 1196.4 131.9 1192.5 121.3 C1190.8 116.3 1188.3 111.6 1185.3 107.3 C1183.8 105.1 1182.2 103 1180.6 101 C1179.2 99.3 1177.8 99.1 1179.2 96.7 C1184.2 87.9 1188.1 78.9 1189 68.8 C1189.3 65.7 1189.8 62.3 1189.5 59.2 C1189.3 58.2 1189.7 57.1 1189.7 56 C1189.7 54.7 1189.5 53.3 1189.7 51.9 C1189.8 50.8 1189.9 49.5 1189.8 48.4 C1189.6 46.6 1188.4 47 1186.9 47 C1180.4 46.9 1173.9 46.8 1167.5 46.8 C1164.1 46.8 1160.8 46.9 1157.4 46.9 C1155.8 46.9 1154.3 47 1152.7 47 C1151.5 47 1149.8 46.8 1148.6 47.2 C1146.8 47.7 1147.4 50.8 1147.3 52.5 C1147.2 55 1147.3 57.6 1147.1 60.1 C1146.8 65.2 1145.3 69.8 1141.8 73.6 C1135.6 80.1 1126.1 80.6 1117.8 82.3 C1116.6 82.6 1113.6 84 1112.7 82.9 C1112.4 79.9 1112.3 76.8 1112.3 73.8 C1112.3 69 1112.4 64.2 1112.2 59.5 C1112.1 53.4 1112.3 47.3 1112.1 41.2 C1111.9 28.6 1112 15.9 1111.9 3.3 C1111.2 2 1111.3 1.9 1110 1.8 C1108.5 1.8 1107.1 1.7 1105.6 1.7 C1100.5 1.5 1095.4 1.7 1090.3 1.8 C1083.9 2 1077.4 2.1 1070.9 2.3 C1069.2 2.3 1069.5 3.5 1069.5 5 C1069.4 6.6 1069.4 8.1 1069.4 9.7 C1069.3 12.7 1069.3 15.8 1069.3 18.9 C1069.4 24.7 1069.5 30.5 1069.5 36.4 C1069.5 44.3 1069.6 52.3 1069.6 60.3 C1069.7 79.4 1070 98.7 1070 117.7 C1070 135.5 1070.1 153.2 1070.3 170.9 C1070.4 173.5 1070.4 176 1070.4 178.6 C1070.5 179.8 1070.2 181 1071.7 181 L1109.9 181 C1110.6 181 1111.4 181.1 1112.1 180.9 C1113.7 180.4 1113 174.5 1113 173.1 C1113.1 166.6 1113 160 1113 153.5 C1113 148.5 1112.6 143.4 1113.7 138.5 C1116 128 1125.7 121.4 1136.3 122.7 C1144.3 123.8 1151.2 130.3 1153.1 138.1 C1153.8 141 1153.6 144 1153.6 147 C1153.7 150.1 1153.7 153.3 1153.7 156.4 C1153.7 162.8 1153.8 169.3 1154.1 175.7 C1154.1 176.9 1153.7 180.3 1154.9 180.6 C1156.2 181 1157.6 181 1158.9 181 C1161.7 180.9 1164.5 180.9 1167.3 180.9 C1173.7 180.8 1180 180.9 1186.4 180.8 C1188.2 180.8 1190 180.8 1191.8 180.7 C1192.8 180.7 1194.8 181 1195.7 180.5 C1196.8 179.9 1196.4 179 1196.4 177.8 L1196.4 177.8 ZM769 124.8 C765.1 135.2 758.7 145.2 751.4 153.5 C749.6 155.6 747.7 157.5 745.7 159.3 C743.6 161.1 741.2 162.6 739.1 164.4 C734.8 168 729.9 170.7 725 173.3 C704 184.1 678.7 186.3 656.1 179.7 C650.6 178.1 645.3 176.4 640.2 173.8 C635.4 171.4 630.8 168.6 626.5 165.4 C617.7 159 610.1 150.7 604.1 141.5 C592.2 123.4 587.3 100.6 590.9 79.2 C594.5 57.9 605.4 38 621.9 24.2 C639.2 9.8 661.4 2 683.8 2.3 C689.6 2.3 695.4 2.9 701.1 4.2 C706.8 5.4 712.7 6.8 718 9.4 C728.1 13.5 737.6 19 745.6 26.5 C749.9 30.5 753.8 35.1 757.4 39.8 C761 44.4 763.5 49.6 766.2 54.8 C771.7 65.5 774.2 77.7 774.7 89.6 C775.3 101.5 773.1 113.7 769 124.8 L769 124.8 ZM766.3 49.6 C763.9 45.3 761.5 41.1 758.4 37.2 C755.7 33.8 752.8 30.6 749.8 27.5 C744.1 21.7 737.8 17 730.8 12.9 C728.2 11.4 725.5 10 722.8 8.8 C721 8 719 7.5 717.3 6.5 C712.7 3.7 706.6 3.3 701.5 1.8 C691 0 680.1 -0.6 669.4 0.8 C659.1 2.1 648.6 5.4 639.3 10.2 C634 12.9 629 16 624.2 19.4 C620.1 22.4 616.7 25.9 613 29.3 C608.8 33.1 605.4 38.4 602.3 43.2 C599.2 48 596.5 53 594.7 58.4 C586.8 76.7 585.3 97.9 590.7 117.2 C593.7 128.1 599 138.2 605.4 147.5 C608.8 152.3 612.9 156.5 617.2 160.4 C621.5 164.3 626 168.2 631 171.1 C636.2 174.1 641.3 177.2 647 179.2 C652.5 181 658 182.6 663.7 183.8 C669.6 184.9 675.6 185.5 681.5 185.4 C687.6 185.3 693.6 185.3 699.6 184.1 C705.1 183 711.1 181.8 716.3 179.6 C721.9 177.2 727.4 174.6 732.6 171.6 C742.6 165.7 751.1 157.8 758.1 148.5 C764.8 139.6 770.5 129.6 773.4 118.8 C776.6 107.1 778.1 94.8 776.7 82.7 C775.3 71.1 772 59.8 766.3 49.6 L766.3 49.6 Z" sketch:type="MSShapeGroup"/></g></g></svg>